<svg data-v-423bf9ae="" xmlns="http://www.w3.org/2000/svg" viewBox="0 0 313.038353836237 60" class="font"><!----><!----><!----><g data-v-423bf9ae="" id="206fde97-0c6d-4db1-aeed-a440f3a75aea" fill="#2a2a2a" transform="matrix(5.899704970490485,0,0,5.899704970490485,-5.368730026673887,-28.023597656155488)"><path d="M4.09 11.96L3.35 11.96L3.35 14.64L3.35 14.64Q3.19 14.69 2.86 14.73L2.86 14.73L2.86 14.73Q2.53 14.77 2.21 14.77L2.21 14.77L2.21 14.77Q1.89 14.77 1.65 14.72L1.65 14.72L1.65 14.72Q1.40 14.67 1.24 14.55L1.24 14.55L1.24 14.55Q1.08 14.42 0.99 14.20L0.99 14.20L0.99 14.20Q0.91 13.97 0.91 13.61L0.91 13.61L0.91 7.01L0.91 7.01Q0.91 6.72 1.07 6.56L1.07 6.56L1.07 6.56Q1.23 6.40 1.51 6.30L1.51 6.30L1.51 6.30Q1.99 6.13 2.62 6.06L2.62 6.06L2.62 6.06Q3.25 5.98 3.96 5.98L3.96 5.98L3.96 5.98Q5.89 5.98 6.87 6.79L6.87 6.79L6.87 6.79Q7.85 7.60 7.85 8.99L7.85 8.99L7.85 8.99Q7.85 9.86 7.41 10.47L7.41 10.47L7.41 10.47Q6.96 11.09 6.34 11.42L6.34 11.42L6.34 11.42Q6.85 12.11 7.34 12.71L7.34 12.71L7.34 12.71Q7.83 13.31 8.11 13.80L8.11 13.80L8.11 13.80Q7.97 14.29 7.59 14.55L7.59 14.55L7.59 14.55Q7.22 14.81 6.76 14.81L6.76 14.81L6.76 14.81Q6.45 14.81 6.23 14.74L6.23 14.74L6.23 14.74Q6.01 14.67 5.84 14.55L5.84 14.55L5.84 14.55Q5.67 14.42 5.53 14.24L5.53 14.24L5.53 14.24Q5.39 14.06 5.26 13.85L5.26 13.85L4.09 11.96ZM3.33 10.09L4.23 10.09L4.23 10.09Q4.76 10.09 5.07 9.82L5.07 9.82L5.07 9.82Q5.38 9.55 5.38 9.02L5.38 9.02L5.38 9.02Q5.38 8.48 5.03 8.21L5.03 8.21L5.03 8.21Q4.69 7.94 3.95 7.94L3.95 7.94L3.95 7.94Q3.74 7.94 3.61 7.95L3.61 7.95L3.61 7.95Q3.49 7.97 3.33 7.99L3.33 7.99L3.33 10.09ZM12.85 14.92L12.85 14.92L12.85 14.92Q12.03 14.92 11.32 14.69L11.32 14.69L11.32 14.69Q10.61 14.46 10.09 14.00L10.09 14.00L10.09 14.00Q9.56 13.54 9.26 12.84L9.26 12.84L9.26 12.84Q8.96 12.14 8.96 11.20L8.96 11.20L8.96 11.20Q8.96 10.28 9.26 9.61L9.26 9.61L9.26 9.61Q9.56 8.95 10.05 8.52L10.05 8.52L10.05 8.52Q10.54 8.09 11.17 7.89L11.17 7.89L11.17 7.89Q11.80 7.69 12.46 7.69L12.46 7.69L12.46 7.69Q13.20 7.69 13.81 7.91L13.81 7.91L13.81 7.91Q14.42 8.13 14.86 8.53L14.86 8.53L14.86 8.53Q15.30 8.92 15.55 9.46L15.55 9.46L15.55 9.46Q15.79 10.01 15.79 10.65L15.79 10.65L15.79 10.65Q15.79 11.13 15.53 11.38L15.53 11.38L15.53 11.38Q15.26 11.63 14.78 11.70L14.78 11.70L11.33 12.22L11.33 12.22Q11.48 12.68 11.96 12.92L11.96 12.92L11.96 12.92Q12.43 13.15 13.05 13.15L13.05 13.15L13.05 13.15Q13.62 13.15 14.13 13.00L14.13 13.00L14.13 13.00Q14.64 12.85 14.97 12.66L14.97 12.66L14.97 12.66Q15.19 12.80 15.34 13.05L15.34 13.05L15.34 13.05Q15.50 13.30 15.50 13.58L15.50 13.58L15.50 13.58Q15.50 14.21 14.91 14.52L14.91 14.52L14.91 14.52Q14.46 14.76 13.90 14.84L13.90 14.84L13.90 14.84Q13.34 14.92 12.85 14.92ZM12.46 9.42L12.46 9.42L12.46 9.42Q12.12 9.42 11.88 9.53L11.88 9.53L11.88 9.53Q11.63 9.65 11.48 9.82L11.48 9.82L11.48 9.82Q11.33 10.00 11.25 10.21L11.25 10.21L11.25 10.21Q11.17 10.43 11.16 10.65L11.16 10.65L13.55 10.26L13.55 10.26Q13.51 9.98 13.24 9.70L13.24 9.70L13.24 9.70Q12.98 9.42 12.46 9.42ZM19.36 6.57L19.36 14.69L19.36 14.69Q19.21 14.71 18.91 14.76L18.91 14.76L18.91 14.76Q18.61 14.81 18.30 14.81L18.30 14.81L18.30 14.81Q17.99 14.81 17.75 14.77L17.75 14.77L17.75 14.77Q17.50 14.73 17.33 14.60L17.33 14.60L17.33 14.60Q17.16 14.48 17.07 14.26L17.07 14.26L17.07 14.26Q16.98 14.04 16.98 13.69L16.98 13.69L16.98 5.57L16.98 5.57Q17.14 5.54 17.44 5.50L17.44 5.50L17.44 5.50Q17.74 5.45 18.05 5.45L18.05 5.45L18.05 5.45Q18.35 5.45 18.60 5.49L18.60 5.49L18.60 5.49Q18.84 5.53 19.01 5.66L19.01 5.66L19.01 5.66Q19.18 5.78 19.27 6.00L19.27 6.00L19.27 6.00Q19.36 6.22 19.36 6.57L19.36 6.57ZM20.80 6.01L20.80 6.01L20.80 6.01Q20.80 5.47 21.16 5.11L21.16 5.11L21.16 5.11Q21.52 4.75 22.11 4.75L22.11 4.75L22.11 4.75Q22.69 4.75 23.05 5.11L23.05 5.11L23.05 5.11Q23.41 5.47 23.41 6.01L23.41 6.01L23.41 6.01Q23.41 6.54 23.05 6.90L23.05 6.90L23.05 6.90Q22.69 7.27 22.11 7.27L22.11 7.27L22.11 7.27Q21.52 7.27 21.16 6.90L21.16 6.90L21.16 6.90Q20.80 6.54 20.80 6.01ZM23.30 8.99L23.30 14.69L23.30 14.69Q23.14 14.71 22.84 14.76L22.84 14.76L22.84 14.76Q22.54 14.81 22.23 14.81L22.23 14.81L22.23 14.81Q21.92 14.81 21.68 14.77L21.68 14.77L21.68 14.77Q21.43 14.73 21.27 14.60L21.27 14.60L21.27 14.60Q21.10 14.48 21.01 14.26L21.01 14.26L21.01 14.26Q20.92 14.04 20.92 13.69L20.92 13.69L20.92 7.99L20.92 7.99Q21.07 7.97 21.37 7.92L21.37 7.92L21.37 7.92Q21.67 7.87 21.98 7.87L21.98 7.87L21.98 7.87Q22.29 7.87 22.53 7.91L22.53 7.91L22.53 7.91Q22.78 7.95 22.95 8.08L22.95 8.08L22.95 8.08Q23.11 8.20 23.20 8.42L23.20 8.42L23.20 8.42Q23.30 8.64 23.30 8.99L23.30 8.99ZM27.72 13.19L27.72 13.19L27.72 13.19Q27.96 13.19 28.24 13.14L28.24 13.14L28.24 13.14Q28.53 13.09 28.67 13.01L28.67 13.01L28.67 11.89L27.66 11.97L27.66 11.97Q27.27 12.00 27.02 12.14L27.02 12.14L27.02 12.14Q26.77 12.28 26.77 12.56L26.77 12.56L26.77 12.56Q26.77 12.84 26.98 13.01L26.98 13.01L26.98 13.01Q27.20 13.19 27.72 13.19ZM27.61 7.69L27.61 7.69L27.61 7.69Q28.36 7.69 28.99 7.84L28.99 7.84L28.99 7.84Q29.61 7.99 30.05 8.31L30.05 8.31L30.05 8.31Q30.49 8.62 30.73 9.11L30.73 9.11L30.73 9.11Q30.97 9.59 30.97 10.25L30.97 10.25L30.97 13.38L30.97 13.38Q30.97 13.75 30.77 13.98L30.77 13.98L30.77 13.98Q30.56 14.21 30.28 14.38L30.28 14.38L30.28 14.38Q29.37 14.92 27.72 14.92L27.72 14.92L27.72 14.92Q26.98 14.92 26.38 14.78L26.38 14.78L26.38 14.78Q25.79 14.64 25.36 14.36L25.36 14.36L25.36 14.36Q24.93 14.08 24.70 13.65L24.70 13.65L24.70 13.65Q24.47 13.22 24.47 12.64L24.47 12.64L24.47 12.64Q24.47 11.68 25.05 11.16L25.05 11.16L25.05 11.16Q25.62 10.64 26.82 10.51L26.82 10.51L28.66 10.32L28.66 10.22L28.66 10.22Q28.66 9.81 28.30 9.64L28.30 9.64L28.30 9.64Q27.94 9.46 27.27 9.46L27.27 9.46L27.27 9.46Q26.74 9.46 26.24 9.58L26.24 9.58L26.24 9.58Q25.73 9.69 25.33 9.86L25.33 9.86L25.33 9.86Q25.14 9.73 25.02 9.47L25.02 9.47L25.02 9.47Q24.89 9.21 24.89 8.93L24.89 8.93L24.89 8.93Q24.89 8.57 25.07 8.35L25.07 8.35L25.07 8.35Q25.24 8.13 25.61 7.98L25.61 7.98L25.61 7.98Q26.01 7.83 26.56 7.76L26.56 7.76L26.56 7.76Q27.12 7.69 27.61 7.69ZM36.74 13.69L36.74 10.39L36.74 10.39Q36.74 9.95 36.49 9.75L36.49 9.75L36.49 9.75Q36.25 9.55 35.83 9.55L35.83 9.55L35.83 9.55Q35.55 9.55 35.27 9.62L35.27 9.62L35.27 9.62Q35 9.69 34.80 9.83L34.80 9.83L34.80 14.69L34.80 14.69Q34.66 14.73 34.36 14.77L34.36 14.77L34.36 14.77Q34.06 14.81 33.74 14.81L33.74 14.81L33.74 14.81Q33.43 14.81 33.19 14.77L33.19 14.77L33.19 14.77Q32.94 14.73 32.77 14.60L32.77 14.60L32.77 14.60Q32.61 14.48 32.52 14.26L32.52 14.26L32.52 14.26Q32.42 14.04 32.42 13.69L32.42 13.69L32.42 9.49L32.42 9.49Q32.42 9.11 32.59 8.88L32.59 8.88L32.59 8.88Q32.75 8.64 33.03 8.44L33.03 8.44L33.03 8.44Q33.50 8.11 34.22 7.90L34.22 7.90L34.22 7.90Q34.94 7.69 35.83 7.69L35.83 7.69L35.83 7.69Q37.41 7.69 38.26 8.38L38.26 8.38L38.26 8.38Q39.12 9.07 39.12 10.30L39.12 10.30L39.12 14.69L39.12 14.69Q38.98 14.73 38.67 14.77L38.67 14.77L38.67 14.77Q38.37 14.81 38.05 14.81L38.05 14.81L38.05 14.81Q37.74 14.81 37.50 14.77L37.50 14.77L37.50 14.77Q37.25 14.73 37.09 14.60L37.09 14.60L37.09 14.60Q36.92 14.48 36.83 14.26L36.83 14.26L36.83 14.26Q36.74 14.04 36.74 13.69L36.74 13.69ZM44.42 9.56L44.42 9.56L44.42 9.56Q44.07 9.56 43.76 9.67L43.76 9.67L43.76 9.67Q43.44 9.79 43.21 10.00L43.21 10.00L43.21 10.00Q42.98 10.22 42.84 10.54L42.84 10.54L42.84 10.54Q42.70 10.86 42.70 11.30L42.70 11.30L42.70 11.30Q42.70 12.17 43.20 12.60L43.20 12.60L43.20 12.60Q43.69 13.03 44.41 13.03L44.41 13.03L44.41 13.03Q44.83 13.03 45.14 12.94L45.14 12.94L45.14 12.94Q45.44 12.84 45.68 12.73L45.68 12.73L45.68 12.73Q45.96 12.92 46.10 13.15L46.10 13.15L46.10 13.15Q46.24 13.38 46.24 13.71L46.24 13.71L46.24 13.71Q46.24 14.28 45.70 14.60L45.70 14.60L45.70 14.60Q45.15 14.91 44.18 14.91L44.18 14.91L44.18 14.91Q43.30 14.91 42.59 14.65L42.59 14.65L42.59 14.65Q41.87 14.39 41.36 13.92L41.36 13.92L41.36 13.92Q40.85 13.45 40.57 12.80L40.57 12.80L40.57 12.80Q40.29 12.14 40.29 11.34L40.29 11.34L40.29 11.34Q40.29 10.42 40.59 9.72L40.59 9.72L40.59 9.72Q40.89 9.03 41.41 8.58L41.41 8.58L41.41 8.58Q41.93 8.13 42.61 7.91L42.61 7.91L42.61 7.91Q43.29 7.69 44.04 7.69L44.04 7.69L44.04 7.69Q45.05 7.69 45.60 8.05L45.60 8.05L45.60 8.05Q46.14 8.41 46.14 8.99L46.14 8.99L46.14 8.99Q46.14 9.25 46.02 9.49L46.02 9.49L46.02 9.49Q45.89 9.72 45.72 9.88L45.72 9.88L45.72 9.88Q45.49 9.77 45.15 9.67L45.15 9.67L45.15 9.67Q44.81 9.56 44.42 9.56ZM51.03 14.92L51.03 14.92L51.03 14.92Q50.20 14.92 49.50 14.69L49.50 14.69L49.50 14.69Q48.79 14.46 48.26 14.00L48.26 14.00L48.26 14.00Q47.74 13.54 47.44 12.84L47.44 12.84L47.44 12.84Q47.14 12.14 47.14 11.20L47.14 11.20L47.14 11.20Q47.14 10.28 47.44 9.61L47.44 9.61L47.44 9.61Q47.74 8.95 48.23 8.52L48.23 8.52L48.23 8.52Q48.72 8.09 49.35 7.89L49.35 7.89L49.35 7.89Q49.98 7.69 50.64 7.69L50.64 7.69L50.64 7.69Q51.38 7.69 51.99 7.91L51.99 7.91L51.99 7.91Q52.60 8.13 53.04 8.53L53.04 8.53L53.04 8.53Q53.48 8.92 53.72 9.46L53.72 9.46L53.72 9.46Q53.97 10.01 53.97 10.65L53.97 10.65L53.97 10.65Q53.97 11.13 53.70 11.38L53.70 11.38L53.70 11.38Q53.44 11.63 52.96 11.70L52.96 11.70L49.50 12.22L49.50 12.22Q49.66 12.68 50.13 12.92L50.13 12.92L50.13 12.92Q50.61 13.15 51.23 13.15L51.23 13.15L51.23 13.15Q51.80 13.15 52.31 13.00L52.31 13.00L52.31 13.00Q52.82 12.85 53.14 12.66L53.14 12.66L53.14 12.66Q53.37 12.80 53.52 13.05L53.52 13.05L53.52 13.05Q53.68 13.30 53.68 13.58L53.68 13.58L53.68 13.58Q53.68 14.21 53.09 14.52L53.09 14.52L53.09 14.52Q52.64 14.76 52.08 14.84L52.08 14.84L52.08 14.84Q51.52 14.92 51.03 14.92ZM50.64 9.42L50.64 9.42L50.64 9.42Q50.30 9.42 50.06 9.53L50.06 9.53L50.06 9.53Q49.81 9.65 49.66 9.82L49.66 9.82L49.66 9.82Q49.50 10.00 49.43 10.21L49.43 10.21L49.43 10.21Q49.35 10.43 49.34 10.65L49.34 10.65L51.73 10.26L51.73 10.26Q51.69 9.98 51.42 9.70L51.42 9.70L51.42 9.70Q51.16 9.42 50.64 9.42Z"></path></g><!----><!----></svg>